HIERARCHY
ROOT reference
{
  OFFSET 0 0 0
  CHANNELS 6 Xposition Yposition Zposition Zrotation Xrotation Yrotation
  JOINT Hips
  {
    OFFSET 387.421 88.6843 214.036
    CHANNELS 3 Zrotation Xrotation Yrotation
    JOINT RightUpLeg
    {
      OFFSET -9.26407 -1.54033 -0.0169218
      CHANNELS 3 Zrotation Xrotation Yrotation
      JOINT RightLeg
      {
        OFFSET 0.0262756 -41.889 0.0389421
        CHANNELS 3 Zrotation Xrotation Yrotation
        JOINT RightFoot
        {
          OFFSET -0.025595 -42.7244 0.117519
          CHANNELS 3 Zrotation Xrotation Yrotation
          End Site
          {
            OFFSET 0 -7.69 17.5
          }
        }
      }
    }
    JOINT LeftUpLeg
    {
      OFFSET 9.28488 -1.63184 0.00456132
      CHANNELS 3 Zrotation Xrotation Yrotation
      JOINT LeftLeg
      {
        OFFSET -0.00133996 -41.8929 0.0117795
        CHANNELS 3 Zrotation Xrotation Yrotation
        JOINT LeftFoot
        {
          OFFSET 0.253805 -40.8902 0.809143
          CHANNELS 3 Zrotation Xrotation Yrotation
          End Site
          {
            OFFSET 0 -7.69 17.5
          }
        }
      }
    }
    JOINT Spine
    {
      OFFSET 0.04218 14.2944 0.0529257
      CHANNELS 3 Zrotation Xrotation Yrotation
      JOINT Spine1
      {
        OFFSET 0.022284 9.72228 0.00997239
        CHANNELS 3 Zrotation Xrotation Yrotation
        JOINT Spine2
        {
          OFFSET 0.0397412 10.1199 -0.0103674
          CHANNELS 3 Zrotation Xrotation Yrotation
          JOINT Spine3
          {
            OFFSET 0.0389473 9.71765 -0.00772733
            CHANNELS 3 Zrotation Xrotation Yrotation
            JOINT Neck
            {
              OFFSET 0.0437972 10.3765 0.0320322
              CHANNELS 3 Zrotation Xrotation Yrotation
              JOINT Head
              {
                OFFSET 0.0431994 9.46781 0.0291763
                CHANNELS 3 Zrotation Xrotation Yrotation
                End Site
                {
                  OFFSET 0 15.95 0
                }
              }
            }
            JOINT RightShoulder
            {
              OFFSET -3.17206 6.93005 0.0018626
              CHANNELS 3 Zrotation Xrotation Yrotation
              JOINT RightArm
              {
                OFFSET -12.781 0.0116363 0.0199633
                CHANNELS 3 Zrotation Xrotation Yrotation
                JOINT RightForeArm
                {
                  OFFSET -26.5135 -0.0113607 0.0486864
                  CHANNELS 3 Zrotation Xrotation Yrotation
                  JOINT RightHand
                  {
                    OFFSET -25.9857 -0.0984063 0.163753
                    CHANNELS 3 Zrotation Xrotation Yrotation
                    JOINT RightHandThumb1
                    {
                      OFFSET -2.48905 0.190105 3.12053
                      CHANNELS 3 Zrotation Xrotation Yrotation
                      JOINT RightHandThumb2
                      {
                        OFFSET -3.68274 0 0
                        CHANNELS 3 Zrotation Xrotation Yrotation
                        JOINT RightHandThumb3
                        {
                          OFFSET -2.55832 0 0
                          CHANNELS 3 Zrotation Xrotation Yrotation
                          End Site
                          {
                            OFFSET -2.194 0 0
                          }
                        }
                      }
                    }
                    JOINT RightInHandIndex
                    {
                      OFFSET -3.22368 0.508421 1.97842
                      CHANNELS 3 Zrotation Xrotation Yrotation
                      JOINT RightHandIndex1
                      {
                        OFFSET -5.21684 -0.091368 0.999158
                        CHANNELS 3 Zrotation Xrotation Yrotation
                        JOINT RightHandIndex2
                        {
                          OFFSET -3.61937 0 0
                          CHANNELS 3 Zrotation Xrotation Yrotation
                          JOINT RightHandIndex3
                          {
                            OFFSET -2.0521 0 0
                            CHANNELS 3 Zrotation Xrotation Yrotation
                            End Site
                            {
                              OFFSET -1.805 0 0
                            }
                          }
                        }
                      }
                    }
                    JOINT RightInHandMiddle
                    {
                      OFFSET -3.38211 0.517263 0.756737
                      CHANNELS 3 Zrotation Xrotation Yrotation
                      JOINT RightHandMiddle1
                      {
                        OFFSET -5.17411 -0.084 0.313895
                        CHANNELS 3 Zrotation Xrotation Yrotation
                        JOINT RightHandMiddle2
                        {
                          OFFSET -3.94947 0 0
                          CHANNELS 3 Zrotation Xrotation Yrotation
                          JOINT RightHandMiddle3
                          {
                            OFFSET -2.47579 0 0
                            CHANNELS 3 Zrotation Xrotation Yrotation
                            End Site
                            {
                              OFFSET -1.975 0 0
                            }
                          }
                        }
                      }
                    }
                    JOINT RightInHandRing
                    {
                      OFFSET -3.36516 0.537895 -0.128947
                      CHANNELS 3 Zrotation Xrotation Yrotation
                      JOINT RightHandRing1
                      {
                        OFFSET -4.63474 -0.022105 -0.478947
                        CHANNELS 3 Zrotation Xrotation Yrotation
                        JOINT RightHandRing2
                        {
                          OFFSET -3.44238 0 0
                          CHANNELS 3 Zrotation Xrotation Yrotation
                          JOINT RightHandRing3
                          {
                            OFFSET -2.3881 0 0
                            CHANNELS 3 Zrotation Xrotation Yrotation
                            End Site
                            {
                              OFFSET -1.857 0 0
                            }
                          }
                        }
                      }
                    }
                    JOINT RightInHandPinky
                    {
                      OFFSET -3.16105 0.469368 -1.20179
                      CHANNELS 3 Zrotation Xrotation Yrotation
                      JOINT RightHandPinky1
                      {
                        OFFSET -4.14105 -0.022105 -1.09053
                        CHANNELS 3 Zrotation Xrotation Yrotation
                        JOINT RightHandPinky2
                        {
                          OFFSET -2.75653 0 0
                          CHANNELS 3 Zrotation Xrotation Yrotation
                          JOINT RightHandPinky3
                          {
                            OFFSET -1.74189 0 0
                            CHANNELS 3 Zrotation Xrotation Yrotation
                            End Site
                            {
                              OFFSET -1.645 0 0
                            }
                          }
                        }
                      }
                    }
                  }
                }
              }
            }
            JOINT LeftShoulder
            {
              OFFSET 3.23848 6.90919 -0.0119143
              CHANNELS 3 Zrotation Xrotation Yrotation
              JOINT LeftArm
              {
                OFFSET 12.8241 -0.0554782 -0.0520121
                CHANNELS 3 Zrotation Xrotation Yrotation
                JOINT LeftForeArm
                {
                  OFFSET 26.4865 -0.0658343 -0.0244543
                  CHANNELS 3 Zrotation Xrotation Yrotation
                  JOINT LeftHand
                  {
                    OFFSET 25.985 -0.0475988 -0.0124738
                    CHANNELS 3 Zrotation Xrotation Yrotation
                    JOINT LeftHandThumb1
                    {
                      OFFSET 2.48905 0.190105 3.12053
                      CHANNELS 3 Zrotation Xrotation Yrotation
                      JOINT LeftHandThumb2
                      {
                        OFFSET 3.68274 0 0
                        CHANNELS 3 Zrotation Xrotation Yrotation
                        JOINT LeftHandThumb3
                        {
                          OFFSET 2.55832 0 0
                          CHANNELS 3 Zrotation Xrotation Yrotation
                          End Site
                          {
                            OFFSET 2.194 0 0
                          }
                        }
                      }
                    }
                    JOINT LeftInHandIndex
                    {
                      OFFSET 3.22368 0.508421 1.97842
                      CHANNELS 3 Zrotation Xrotation Yrotation
                      JOINT LeftHandIndex1
                      {
                        OFFSET 5.21684 -0.091368 0.999158
                        CHANNELS 3 Zrotation Xrotation Yrotation
                        JOINT LeftHandIndex2
                        {
                          OFFSET 3.61937 0 0
                          CHANNELS 3 Zrotation Xrotation Yrotation
                          JOINT LeftHandIndex3
                          {
                            OFFSET 2.0521 0 0
                            CHANNELS 3 Zrotation Xrotation Yrotation
                            End Site
                            {
                              OFFSET 1.805 0 0
                            }
                          }
                        }
                      }
                    }
                    JOINT LeftInHandMiddle
                    {
                      OFFSET 3.38211 0.517263 0.756737
                      CHANNELS 3 Zrotation Xrotation Yrotation
                      JOINT LeftHandMiddle1
                      {
                        OFFSET 5.17411 -0.084 0.313895
                        CHANNELS 3 Zrotation Xrotation Yrotation
                        JOINT LeftHandMiddle2
                        {
                          OFFSET 3.94947 0 0
                          CHANNELS 3 Zrotation Xrotation Yrotation
                          JOINT LeftHandMiddle3
                          {
                            OFFSET 2.47579 0 0
                            CHANNELS 3 Zrotation Xrotation Yrotation
                            End Site
                            {
                              OFFSET 1.975 0 0
                            }
                          }
                        }
                      }
                    }
                    JOINT LeftInHandRing
                    {
                      OFFSET 3.36516 0.537895 -0.128947
                      CHANNELS 3 Zrotation Xrotation Yrotation
                      JOINT LeftHandRing1
                      {
                        OFFSET 4.63474 -0.022105 -0.478947
                        CHANNELS 3 Zrotation Xrotation Yrotation
                        JOINT LeftHandRing2
                        {
                          OFFSET 3.44238 0 0
                          CHANNELS 3 Zrotation Xrotation Yrotation
                          JOINT LeftHandRing3
                          {
                            OFFSET 2.3881 0 0
                            CHANNELS 3 Zrotation Xrotation Yrotation
                            End Site
                            {
                              OFFSET 1.857 0 0
                            }
                          }
                        }
                      }
                    }
                    JOINT LeftInHandPinky
                    {
                      OFFSET 3.16105 0.469368 -1.20179
                      CHANNELS 3 Zrotation Xrotation Yrotation
                      JOINT LeftHandPinky1
                      {
                        OFFSET 4.14105 -0.022105 -1.09053
                        CHANNELS 3 Zrotation Xrotation Yrotation
                        JOINT LeftHandPinky2
                        {
                          OFFSET 2.75653 0 0
                          CHANNELS 3 Zrotation Xrotation Yrotation
                          JOINT LeftHandPinky3
                          {
                            OFFSET 1.74189 0 0
                            CHANNELS 3 Zrotation Xrotation Yrotation
                            End Site
                            {
                              OFFSET 1.645 0 0
                            }
                          }
                        }
                      }
                    }
                  }
                }
              }
            }
          }
        }
      }
    }
  }
}
MOTION
Frames: 2
Frame Time: 0.00833333
1.500000000000000000e+02 0.000000000000000000e+00 0.000000000000000000e+00 0.000000000000000000e+00 0.000000000000000000e+00 -0.000000000000000000e+00 1.345160273697590175e-04 8.540943591316033090e-02 8.522424785169194217e-02 5.269837076085232691e-02 5.630596720810047279e-02 2.022563413837036583e-01 9.497815925329544662e-02 -6.970350917007075986e-02 -3.264713766235833314e-01 2.238588881291378105e-03 -4.591718797787134806e-03 2.263250816703228988e-02 -1.010782023334135804e-01 -4.866785148015945889e-02 -2.148992728322036694e-01 3.602251148932855002e-02 -4.048092848540800481e-02 -3.023776251850119126e-02 -5.011970769045745629e-03 3.392869757119681279e-02 5.531964846294161464e-02 -6.682920991426814956e-04 8.581592186095957520e-04 5.088021231275727946e-02 -1.479443213504517442e-03 1.216594376477672483e-03 1.390374693968496160e-02 -1.058164933316030690e-03 2.127690322134770037e-03 2.256758649280828782e-02 2.858702683849170291e-03 -8.979672827464187839e-04 -5.059100581274291256e-03 2.848579347190630367e-03 -9.513632482915770688e-04 -5.030260847666845510e-03 7.418662439243865758e-02 -1.232675451799812583e-02 -6.837061385189793783e-02 -3.635585481619218323e-02 -6.738905448525603359e-02 -2.981079535832246719e-01 5.281774594609293105e-01 -3.584658716216796437e-01 -2.331420980383921149e-01 8.371462027413262286e-01 6.983055746137711850e-01 1.155679213273958172e+00 -1.916707582399799770e-01 -2.038214052124332626e-02 -2.334859966872337989e-01 0.000000000000000000e+00 0.000000000000000000e+00 0.000000000000000000e+00 -4.973616674553463267e-14 -1.804577143020377964e-15 0.000000000000000000e+00 1.201714717703152564e-14 -7.219768238119278779e-15 0.000000000000000000e+00 -9.492939154635392574e-15 -3.526195368426876492e-15 3.802677234495243406e-16 0.000000000000000000e+00 0.000000000000000000e+00 0.000000000000000000e+00 0.000000000000000000e+00 -7.796655689073848850e-15 -3.657929422475532104e-14 0.000000000000000000e+00 7.392694456848301708e-15 -3.462263758955843522e-14 -9.492939154635392574e-15 -3.526195368426876492e-15 3.802677234495243406e-16 0.000000000000000000e+00 -3.045261543589280659e-15 -5.513042233273117743e-15 0.000000000000000000e+00 -1.504365450824565045e-14 -3.593684188585880375e-14 0.000000000000000000e+00 -2.842106923118109389e-14 -2.526380396362485778e-14 -9.492939154635392574e-15 -3.526195368426876492e-15 3.802677234495243406e-16 0.000000000000000000e+00 0.000000000000000000e+00 0.000000000000000000e+00 0.000000000000000000e+00 -6.962190240821060226e-15 -5.031103780634847327e-14 0.000000000000000000e+00 8.336435320158062763e-15 -2.396638223306381658e-14 -9.492939154635392574e-15 -3.526195368426876492e-15 3.802677234495243406e-16 0.000000000000000000e+00 0.000000000000000000e+00 0.000000000000000000e+00 0.000000000000000000e+00 1.488162322664096659e-16 -2.203724303173912844e-14 0.000000000000000000e+00 5.056356176434469290e-15 -1.728991037882480401e-14 1.090573296962990130e-01 -1.488511828971162410e-01 -3.228973996803861657e-01 3.228476906032251015e-01 4.439121369212875590e-02 -3.298442681722334457e-01 1.358094879362217178e-01 1.817812355748153197e-01 2.248507300419868571e-01 -1.085838676588507523e+00 -3.055168425670283572e+00 -7.633568397962842145e-01 0.000000000000000000e+00 0.000000000000000000e+00 0.000000000000000000e+00 -7.974592470578465023e-15 8.125534203082900124e-15 0.000000000000000000e+00 -1.934861239426361947e-14 9.607469648030380731e-15 0.000000000000000000e+00 -4.348450584668469155e-15 3.677356294248682700e-15 1.614842047052449678e-15 0.000000000000000000e+00 0.000000000000000000e+00 0.000000000000000000e+00 0.000000000000000000e+00 -8.040334007098921329e-16 3.215131123015898346e-14 0.000000000000000000e+00 2.278974557367406682e-15 2.621295941519171605e-14 -4.348450584668469155e-15 3.677356294248682700e-15 1.614842047052449678e-15 0.000000000000000000e+00 -9.829909660893122365e-16 3.930128961753957296e-15 0.000000000000000000e+00 1.153230782276544048e-14 2.066732591819784456e-14 0.000000000000000000e+00 -3.847749367408786352e-15 1.242279184521542896e-14 -4.348450584668469155e-15 3.677356294248682700e-15 1.614842047052449678e-15 0.000000000000000000e+00 0.000000000000000000e+00 0.000000000000000000e+00 0.000000000000000000e+00 -2.508845242482835374e-15 8.918964515812589105e-15 0.000000000000000000e+00 1.587752267550288897e-15 1.680808222221962223e-14 -4.348450584668469155e-15 3.677356294248682700e-15 1.614842047052449678e-15 0.000000000000000000e+00 0.000000000000000000e+00 0.000000000000000000e+00 0.000000000000000000e+00 6.479359598056866685e-16 1.441254811667951466e-14 0.000000000000000000e+00 -6.875616871467667097e-15 1.366016465563957197e-14
1.500000000000000000e+02 0.000000000000000000e+00 0.000000000000000000e+00 0.000000000000000000e+00 0.000000000000000000e+00 -0.000000000000000000e+00 1.427394940951071459e-02 7.584253739120173921e-02 5.624656442586841582e-02 5.105013747497253590e-02 2.904510200614823096e-02 1.536174462691903553e-01 7.654710376338290378e-02 -5.201077182716421637e-02 -2.330903053712525541e-01 -2.419888961014089301e-03 2.697823850643243145e-03 4.161852468959736234e-03 2.296843571734347514e-02 -2.552089270237927268e-02 -5.614405678472889766e-02 -9.854272417407826043e-03 -1.076019290973596540e-02 2.588620040020771576e-02 -1.335620017321108646e-02 -1.217056977566438256e-02 -3.941576746065008491e-02 1.095356496090097755e-02 -2.028969333371443903e-02 1.104643385194176153e-02 3.742620164597786677e-03 -4.921253812158631578e-03 4.099620942095573428e-03 4.539779444054948057e-03 -7.473726706339106109e-03 7.135140021079088880e-03 4.234425971465942407e-03 -2.730441246164084460e-03 -3.610157572025269289e-03 4.243840541017228005e-03 -2.741974448957666070e-03 -3.648013489993170034e-03 5.717134415895691602e-02 -1.389387674619118988e-02 -2.201704225878029636e-02 1.197387206744135596e-01 -1.414744636711859696e-02 -2.452519707923066228e-01 2.187825973555819203e-01 -1.059442631101483179e-01 -2.207307859499403890e-01 5.097946745500641086e-01 3.728568411133468818e-01 8.218321499532323937e-01 -5.508499068329946180e-01 2.356679771078979413e-01 -5.626876962265520143e-01 0.000000000000000000e+00 0.000000000000000000e+00 0.000000000000000000e+00 1.151271369774161133e-14 -1.010546641850542843e-14 0.000000000000000000e+00 2.957124344354593356e-14 -2.637533350641513002e-15 0.000000000000000000e+00 1.779956246832323237e-15 2.962652293377157428e-15 3.575761976994559845e-15 0.000000000000000000e+00 0.000000000000000000e+00 0.000000000000000000e+00 0.000000000000000000e+00 4.566745579768135155e-15 -5.538059613889899527e-16 0.000000000000000000e+00 7.600199740124415168e-15 8.541780179243482882e-15 1.779956246832323237e-15 2.962652293377157428e-15 3.575761976994559845e-15 0.000000000000000000e+00 2.203168984440463769e-15 6.866083269409314503e-16 0.000000000000000000e+00 -4.102229217003840554e-15 -1.765119859327196903e-15 0.000000000000000000e+00 1.021827641968809378e-16 2.533344329583527464e-15 1.779956246832323237e-15 2.962652293377157428e-15 3.575761976994559845e-15 0.000000000000000000e+00 0.000000000000000000e+00 0.000000000000000000e+00 0.000000000000000000e+00 -6.823290161674187327e-15 -2.197435107499806887e-15 0.000000000000000000e+00 1.982464358887358824e-14 4.522622109054241494e-15 1.779956246832323237e-15 2.962652293377157428e-15 3.575761976994559845e-15 0.000000000000000000e+00 0.000000000000000000e+00 0.000000000000000000e+00 0.000000000000000000e+00 -1.145192086314743270e-14 1.876404504838373384e-14 0.000000000000000000e+00 8.353427926494815010e-15 1.299512967301886130e-14 3.023782289249063449e-02 -1.218566239329438305e-01 -2.146227607051604258e-01 2.398655437953665370e-01 7.725146800111727663e-02 -2.012479481708846218e-01 -6.717420496254154078e-03 2.992748953322072469e-01 5.196461645827242515e-02 -8.360086742591431586e-01 -2.431030978986103985e+00 -6.485192074508130400e-01 0.000000000000000000e+00 0.000000000000000000e+00 0.000000000000000000e+00 -3.000939648946751053e-15 3.056165401637494353e-15 0.000000000000000000e+00 1.628457235028620804e-15 -4.149519365566626702e-15 0.000000000000000000e+00 2.138012708154914406e-15 -9.142744913801873166e-15 -3.962551126466914722e-15 0.000000000000000000e+00 0.000000000000000000e+00 0.000000000000000000e+00 0.000000000000000000e+00 -8.651252002002506001e-15 1.350172693430023616e-14 0.000000000000000000e+00 5.127219936771495760e-15 1.936254916409084727e-14 2.138012708154914406e-15 -9.142744913801873166e-15 -3.962551126466914722e-15 0.000000000000000000e+00 -1.324185220223159599e-14 -2.952118600607066520e-15 0.000000000000000000e+00 2.030469515434847274e-16 1.268213695411522345e-14 0.000000000000000000e+00 6.750230602927136554e-16 2.255259348434233462e-14 2.138012708154914406e-15 -9.142744913801873166e-15 -3.962551126466914722e-15 0.000000000000000000e+00 0.000000000000000000e+00 0.000000000000000000e+00 0.000000000000000000e+00 -6.031142434227207183e-16 2.725760954703184938e-15 0.000000000000000000e+00 7.222546262468267352e-15 1.067751699843815534e-14 2.138012708154914406e-15 -9.142744913801873166e-15 -3.962551126466914722e-15 0.000000000000000000e+00 0.000000000000000000e+00 0.000000000000000000e+00 0.000000000000000000e+00 -1.794486699136665004e-15 1.355363307170626231e-14 0.000000000000000000e+00 -7.782366609138979721e-15 6.532160275373768584e-15
